<svg xmlns="http://www.w3.org/2000/svg" viewBox="0 0 64 64" role="img" aria-labelledby="title desc">
  <title id="title">giffgaff 中文教程图标</title>
  <desc id="desc">带有 gg 字样的 SIM 卡图标</desc>
  <rect width="64" height="64" rx="14" fill="#1e2930" />
  <path d="M20 8h18l12 12v30a6 6 0 0 1-6 6H20a6 6 0 0 1-6-6V14a6 6 0 0 1 6-6Z" fill="#fff7ed" />
  <path d="M38 8v10a2 2 0 0 0 2 2h10" fill="#fed7aa" />
  <rect x="20" y="26" width="24" height="18" rx="4" fill="#ec6f2b" />
  <path d="M25 35c0-3 2-5 5-5h4v12h-4c-3 0-5-2-5-5v-2Zm5-1c-.9 0-1.5.6-1.5 1.5v1c0 .9.6 1.5 1.5 1.5h.5v-4H30Z" fill="#1e2930" />
  <path d="M35 35c0-3 2-5 5-5h4v12h-4c-3 0-5-2-5-5v-2Zm5-1c-.9 0-1.5.6-1.5 1.5v1c0 .9.6 1.5 1.5 1.5h.5v-4H40Z" fill="#1e2930" />
</svg>
